<?xml version="1.0" encoding="UTF-8" standalone="no"?>
<!-- Generator: Adobe Illustrator 17.0.0, SVG Export Plug-In . SVG Version: 6.00 Build 0)  -->

<svg
   xmlns:dc="http://purl.org/dc/elements/1.1/"
   xmlns:cc="http://creativecommons.org/ns#"
   xmlns:rdf="http://www.w3.org/1999/02/22-rdf-syntax-ns#"
   xmlns:svg="http://www.w3.org/2000/svg"
   xmlns="http://www.w3.org/2000/svg"
   xmlns:sodipodi="http://sodipodi.sourceforge.net/DTD/sodipodi-0.dtd"
   xmlns:inkscape="http://www.inkscape.org/namespaces/inkscape"
   version="1.1"
   id="Calque_1"
   x="0px"
   y="0px"
   width="1084px"
   height="714px"
   viewBox="0 0 1084 714"
   enable-background="new 0 0 1084 714"
   xml:space="preserve"
   sodipodi:docname="figure1.svg"
   inkscape:version="0.92.3 (2405546, 2018-03-11)"><metadata
   id="metadata4351"><rdf:RDF><cc:Work
       rdf:about=""><dc:format>image/svg+xml</dc:format><dc:type
         rdf:resource="http://purl.org/dc/dcmitype/StillImage" /></cc:Work></rdf:RDF></metadata><defs
   id="defs4349" /><sodipodi:namedview
   pagecolor="#ffffff"
   bordercolor="#666666"
   borderopacity="1"
   objecttolerance="10"
   gridtolerance="10"
   guidetolerance="10"
   inkscape:pageopacity="0"
   inkscape:pageshadow="2"
   inkscape:window-width="1920"
   inkscape:window-height="1001"
   id="namedview4347"
   showgrid="false"
   inkscape:zoom="1.1316527"
   inkscape:cx="541.80394"
   inkscape:cy="356.91584"
   inkscape:window-x="-9"
   inkscape:window-y="-9"
   inkscape:window-maximized="1"
   inkscape:current-layer="Calque_1" />
<g
   id="edges">
	<path
   fill="none"
   stroke="#828282"
   d="M440.666-260.007"
   id="path4033" />
</g>
<g
   id="nodes">
	<path
   fill="#EDF8FB"
   stroke="#000000"
   d="M436.466-260.007c0-2.32,1.88-4.2,4.2-4.2s4.2,1.88,4.2,4.2"
   id="path4036" />
</g>
<path
   d="M 840.842,304.86741 C 743.47383,461.76826 380.97488,538.31141 236.6779,432.43712"
   id="path4039"
   inkscape:connector-curvature="0"
   style="fill:none;stroke:#828282;stroke-width:1.27283573" />
<path
   d="M 220.42504,273.9661 C 181.72337,256.70641 147.48192,167.69363 163.35515,125.61148"
   id="path4041"
   inkscape:connector-curvature="0"
   style="fill:none;stroke:#828282;stroke-width:1.27283573" />
<path
   d="m 220.42504,273.9661 c -16.57998,-23.39961 -9.16946,-85.53933 12.34924,-103.56618"
   id="path4043"
   inkscape:connector-curvature="0"
   style="fill:none;stroke:#828282;stroke-width:1.27283573" />
<path
   d="M 220.42504,273.9661 C 186.06275,300.42639 98.01784,284.07188 73.68434,246.70815"
   id="path4045"
   inkscape:connector-curvature="0"
   style="fill:none;stroke:#828282;stroke-width:1.27283573" />
<path
   d="M 220.42504,273.9661 C 196.21361,315.76024 102.24248,338.96076 63.806905,312.63586"
   id="path4047"
   inkscape:connector-curvature="0"
   style="fill:none;stroke:#828282;stroke-width:1.27283573" />
<path
   d="M 220.42504,273.9661 C 173.14591,287.26791 83.877922,230.10941 71.644648,178.70061"
   id="path4049"
   inkscape:connector-curvature="0"
   style="fill:none;stroke:#828282;stroke-width:1.27283573" />
<path
   d="M 220.42504,273.9661 C 210.35109,327.59277 121.26253,391.59995 71.943705,380.64606"
   id="path4051"
   inkscape:connector-curvature="0"
   style="fill:none;stroke:#828282;stroke-width:1.27283573" />
<path
   d="m 840.842,304.86741 c 49.96577,78.53272 16.57877,277.82762 -55.64663,332.15905"
   id="path4053"
   inkscape:connector-curvature="0"
   style="fill:none;stroke:#828282;stroke-width:1.27283573" />
<path
   d="m 840.842,304.86741 c 48.43996,3.92338 115.68635,88.81633 112.07813,141.48604"
   id="path4055"
   inkscape:connector-curvature="0"
   style="fill:none;stroke:#828282;stroke-width:1.27283573" />
<path
   d="M 840.842,304.86741 C 763.31047,333.63049 607.33318,250.31962 580.88064,166.01597"
   id="path4057"
   inkscape:connector-curvature="0"
   style="fill:none;stroke:#828282;stroke-width:1.27283573" />
<path
   d="M 840.842,304.86741 C 727.97899,336.32881 515.28333,199.44039 486.34924,76.719166"
   id="path4059"
   inkscape:connector-curvature="0"
   style="fill:none;stroke:#828282;stroke-width:1.27283573" />
<path
   d="m 840.842,304.86741 c -39.21312,13.95482 -117.28294,-29.071 -130.11678,-71.70927"
   id="path4061"
   inkscape:connector-curvature="0"
   style="fill:none;stroke:#828282;stroke-width:1.27283573" />
<path
   d="M 840.842,304.86741 C 743.4665,368.76309 509.25825,305.7872 450.49532,199.90626"
   id="path4063"
   inkscape:connector-curvature="0"
   style="fill:none;stroke:#828282;stroke-width:1.27283573" />
<path
   d="M 840.842,304.86741 C 809.43488,462.75574 544.51405,648.36261 399.30892,614.21217"
   id="path4065"
   inkscape:connector-curvature="0"
   style="fill:none;stroke:#828282;stroke-width:1.27283573" />
<path
   d="M 840.842,304.86741 C 811.31711,260.04181 828.86627,144.64575 870.09224,112.54062"
   id="path4067"
   inkscape:connector-curvature="0"
   style="fill:none;stroke:#828282;stroke-width:1.27283573" />
<path
   d="M 840.842,304.86741 C 886.87852,413.56877 805.98047,651.70863 706.0111,701.76629"
   id="path4069"
   inkscape:connector-curvature="0"
   style="fill:none;stroke:#828282;stroke-width:1.27283573" />
<path
   d="m 840.842,304.86741 c 31.90758,-17.53712 103.95965,8.19982 120.08799,42.89443"
   id="path4071"
   inkscape:connector-curvature="0"
   style="fill:none;stroke:#828282;stroke-width:1.27283573" />
<path
   d="M 840.842,304.86741 C 838.46541,243.32628 919.79801,147.13834 976.39553,144.5555"
   id="path4073"
   inkscape:connector-curvature="0"
   style="fill:none;stroke:#828282;stroke-width:1.27283573" />
<path
   d="M 840.842,304.86741 C 846.62175,434.12273 676.98423,637.43128 558.11323,643.71586"
   id="path4075"
   inkscape:connector-curvature="0"
   style="fill:none;stroke:#828282;stroke-width:1.27283573" />
<path
   d="m 840.842,304.86741 c 10.81855,-43.51426 87.07328,-91.14037 127.09203,-79.37819"
   id="path4077"
   inkscape:connector-curvature="0"
   style="fill:none;stroke:#828282;stroke-width:1.27283573" />
<path
   d="M 840.842,304.86741 C 790.84572,386.0188 603.90317,426.19899 529.27067,371.8357"
   id="path4079"
   inkscape:connector-curvature="0"
   style="fill:none;stroke:#828282;stroke-width:1.27283573" />
<path
   d="m 840.842,304.86741 c 21.89832,-33.45362 100.89583,-47.91679 131.66211,-24.10572"
   id="path4081"
   inkscape:connector-curvature="0"
   style="fill:none;stroke:#828282;stroke-width:1.27283573" />
<path
   d="M 840.842,304.86741 C 792.14204,257.78547 784.03942,107.73328 827.33925,54.778212"
   id="path4083"
   inkscape:connector-curvature="0"
   style="fill:none;stroke:#828282;stroke-width:1.27283573" />
<path
   d="m 840.842,304.86741 c 69.30317,35.99532 123.60221,203.02318 90.4984,278.37976"
   id="path4085"
   inkscape:connector-curvature="0"
   style="fill:none;stroke:#828282;stroke-width:1.27283573" />
<path
   d="M 785.19537,637.02515 C 735.22961,558.49242 768.61661,359.19753 840.842,304.86607"
   id="path4087"
   inkscape:connector-curvature="0"
   style="fill:none;stroke:#828282;stroke-width:1.27283573" />
<path
   d="m 785.19537,637.02515 c -1.5258,-74.60934 99.10882,-189.01263 167.72354,-190.6717"
   id="path4089"
   inkscape:connector-curvature="0"
   style="fill:none;stroke:#828282;stroke-width:1.27283573" />
<path
   d="M 785.19537,637.02515 C 657.69809,587.2555 535.109,304.64973 580.88064,166.01464"
   id="path4091"
   inkscape:connector-curvature="0"
   style="fill:none;stroke:#828282;stroke-width:1.27283573" />
<path
   d="M 785.19537,637.02515 C 622.3666,589.95382 443.05794,253.7705 486.34801,76.719166"
   id="path4093"
   inkscape:connector-curvature="0"
   style="fill:none;stroke:#828282;stroke-width:1.27283573" />
<path
   d="M 785.19537,637.02515 C 696.01648,572.44725 651.33366,330.12652 710.72399,233.15681"
   id="path4095"
   inkscape:connector-curvature="0"
   style="fill:none;stroke:#828282;stroke-width:1.27283573" />
<path
   d="M 785.19537,637.02515 C 637.85411,622.38811 437.03286,360.11598 450.4941,199.90493"
   id="path4097"
   inkscape:connector-curvature="0"
   style="fill:none;stroke:#828282;stroke-width:1.27283573" />
<path
   d="M 785.19537,637.02515 C 685.23333,639.6425 531.67778,480.52911 529.27067,371.8357"
   id="path4099"
   inkscape:connector-curvature="0"
   style="fill:none;stroke:#828282;stroke-width:1.27283573" />
<path
   d="M 952.91891,446.35345 C 904.47895,442.43005 837.23256,357.53711 840.84078,304.86741"
   id="path4101"
   inkscape:connector-curvature="0"
   style="fill:none;stroke:#828282;stroke-width:1.27283573" />
<path
   d="m 952.91891,446.35345 c 1.5258,74.60934 -99.10881,189.01261 -167.72354,190.6717"
   id="path4103"
   inkscape:connector-curvature="0"
   style="fill:none;stroke:#828282;stroke-width:1.27283573" />
<path
   d="M 952.91891,446.35345 C 826.94743,471.19315 603.72374,302.98933 580.87943,166.01464"
   id="path4105"
   inkscape:connector-curvature="0"
   style="fill:none;stroke:#828282;stroke-width:1.27283573" />
<path
   d="M 952.91891,446.35345 C 865.26583,456.38356 719.94839,328.4661 710.72399,233.15681"
   id="path4107"
   inkscape:connector-curvature="0"
   style="fill:none;stroke:#828282;stroke-width:1.27283573" />
<path
   d="M 952.91891,446.35345 C 774.71249,571.17043 335.21545,467.73828 220.42504,273.9661"
   id="path4109"
   inkscape:connector-curvature="0"
   style="fill:none;stroke:#828282;stroke-width:1.27283573" />
<path
   d="m 580.88064,166.01464 c 127.49729,49.76964 250.08637,332.37542 204.31473,471.01051"
   id="path4111"
   inkscape:connector-curvature="0"
   style="fill:none;stroke:#828282;stroke-width:1.27283573" />
<path
   d="M 580.88064,166.01464 C 706.85212,141.17628 930.07583,309.37875 952.91891,446.35345"
   id="path4113"
   inkscape:connector-curvature="0"
   style="fill:none;stroke:#828282;stroke-width:1.27283573" />
<path
   d="m 710.72399,233.15681 c 39.21313,-13.95484 117.28296,29.07099 130.11679,71.70926"
   id="path4115"
   inkscape:connector-curvature="0"
   style="fill:none;stroke:#828282;stroke-width:1.27283573" />
<path
   d="m 710.72399,233.15681 c 89.17889,64.57789 133.86171,306.89995 74.47138,403.86834"
   id="path4117"
   inkscape:connector-curvature="0"
   style="fill:none;stroke:#828282;stroke-width:1.27283573" />
<path
   d="M 710.72399,233.15681 C 798.37708,223.1267 943.69451,351.04416 952.91891,446.35345"
   id="path4119"
   inkscape:connector-curvature="0"
   style="fill:none;stroke:#828282;stroke-width:1.27283573" />
<path
   d="M 710.72399,233.15681 C 672.4056,247.96505 594.49934,207.68003 580.87943,166.01464"
   id="path4121"
   inkscape:connector-curvature="0"
   style="fill:none;stroke:#828282;stroke-width:1.27283573" />
<path
   d="M 710.72399,233.15681 C 637.07412,250.66472 502.44829,156.8008 486.34801,76.717839"
   id="path4123"
   inkscape:connector-curvature="0"
   style="fill:none;stroke:#828282;stroke-width:1.27283573" />
<path
   d="M 710.72399,233.15681 C 652.56163,283.09899 496.42441,263.1476 450.4941,199.90493"
   id="path4125"
   inkscape:connector-curvature="0"
   style="fill:none;stroke:#828282;stroke-width:1.27283573" />
<path
   d="M 710.72399,233.15681 C 699.94085,300.35339 591.06812,383.56072 529.26945,371.83436"
   id="path4127"
   inkscape:connector-curvature="0"
   style="fill:none;stroke:#828282;stroke-width:1.27283573" />
<path
   d="M 710.72399,233.15681 C 683.04838,199.94475 687.35114,104.98718 717.89527,74.894182"
   id="path4129"
   inkscape:connector-curvature="0"
   style="fill:none;stroke:#828282;stroke-width:1.27283573" />
<path
   d="m 450.4941,199.90493 c 58.16238,-49.94218 214.29958,-29.9908 260.22989,33.25188"
   id="path4131"
   inkscape:connector-curvature="0"
   style="fill:none;stroke:#828282;stroke-width:1.27283573" />
<path
   d="M 870.09103,112.54062 C 860.40279,171.32103 764.78379,243.69128 710.72399,233.15814"
   id="path4133"
   inkscape:connector-curvature="0"
   style="fill:none;stroke:#828282;stroke-width:1.27283573" />
<path
   d="M 706.0111,701.76629 C 659.97459,593.06493 740.87264,354.92506 840.842,304.86741"
   id="path4135"
   inkscape:connector-curvature="0"
   style="fill:none;stroke:#828282;stroke-width:1.27283573" />
<path
   d="M 706.0111,701.76629 C 620.76024,607.01976 623.58969,325.85406 710.72522,233.15814"
   id="path4137"
   inkscape:connector-curvature="0"
   style="fill:none;stroke:#828282;stroke-width:1.27283573" />
<path
   d="M 976.3943,144.55416 C 959.94004,133.57108 950.40927,90.261213 960.51008,72.369732"
   id="path4139"
   inkscape:connector-curvature="0"
   style="fill:none;stroke:#828282;stroke-width:1.27283573" />
<path
   d="m 529.27067,371.8357 c 99.96205,-2.61736 253.51759,156.49604 255.9247,265.18945"
   id="path4141"
   inkscape:connector-curvature="0"
   style="fill:none;stroke:#828282;stroke-width:1.27283573" />
<path
   d="m 529.27067,371.8357 c 98.43624,-77.2267 352.62518,-32.51658 423.64946,74.51775"
   id="path4143"
   inkscape:connector-curvature="0"
   style="fill:none;stroke:#828282;stroke-width:1.27283573" />
<path
   d="m 529.27067,371.8357 c -27.53525,-52.387 3.43001,-175.87937 51.60997,-205.82106"
   id="path4145"
   inkscape:connector-curvature="0"
   style="fill:none;stroke:#828282;stroke-width:1.27283573" />
<path
   d="M 529.27067,371.8357 C 466.40395,322.14702 440.65084,145.07711 486.34924,76.719166"
   id="path4147"
   inkscape:connector-curvature="0"
   style="fill:none;stroke:#828282;stroke-width:1.27283573" />
<path
   d="M 529.27067,371.8357 C 540.05383,304.63912 648.92656,221.43179 710.72522,233.15814"
   id="path4149"
   inkscape:connector-curvature="0"
   style="fill:none;stroke:#828282;stroke-width:1.27283573" />
<path
   d="M 529.27067,371.8357 C 481.89146,354.58129 434.62576,251.42258 450.49532,199.90626"
   id="path4151"
   inkscape:connector-curvature="0"
   style="fill:none;stroke:#828282;stroke-width:1.27283573" />
<path
   d="M 529.27067,371.8357 C 449.50049,419.42597 264.19361,360.70395 220.42626,273.9661"
   id="path4153"
   inkscape:connector-curvature="0"
   style="fill:none;stroke:#828282;stroke-width:1.27283573" />
<path
   d="m 529.27067,371.8357 c -47.3719,75.75077 -222.9283,112.11109 -292.59277,60.60142"
   id="path4155"
   inkscape:connector-curvature="0"
   style="fill:none;stroke:#828282;stroke-width:1.27283573" />
<path
   d="M 220.42504,273.9661 C 350.1915,145.22442 722.44216,163.76493 840.84078,304.86741"
   id="path4157"
   inkscape:connector-curvature="0"
   style="fill:none;stroke:#828282;stroke-width:1.27283573" />
<path
   d="M 220.42504,273.9661 C 237.32971,176.68716 396.8835,58.337926 486.34801,76.719166"
   id="path4159"
   inkscape:connector-curvature="0"
   style="fill:none;stroke:#828282;stroke-width:1.27283573" />
<path
   d="m 220.42504,273.9661 c 98.35934,29.14799 205.68917,233.29404 178.88388,340.24476"
   id="path4161"
   inkscape:connector-curvature="0"
   style="fill:none;stroke:#828282;stroke-width:1.27283573" />
<path
   d="m 220.42504,273.9661 c -8.1075,-58.66892 60.66469,-159.8978 114.62073,-168.71347"
   id="path4163"
   inkscape:connector-curvature="0"
   style="fill:none;stroke:#828282;stroke-width:1.27283573" />
<path
   d="m 220.42504,273.9661 c 93.22532,-15.85147 254.93109,112.42302 269.50922,213.79126"
   id="path4165"
   inkscape:connector-curvature="0"
   style="fill:none;stroke:#828282;stroke-width:1.27283573" />
<path
   d="m 236.67668,432.43712 c 147.33393,-78.36815 476.44587,44.38495 548.51869,204.58803"
   id="path4167"
   inkscape:connector-curvature="0"
   style="fill:none;stroke:#828282;stroke-width:1.27283573" />
<path
   d="M 236.67668,432.43712 C 382.48481,279.45965 812.23015,287.80944 952.91891,446.35345"
   id="path4169"
   inkscape:connector-curvature="0"
   style="fill:none;stroke:#828282;stroke-width:1.27283573" />
<path
   d="M 236.67668,432.43712 C 256.51333,304.29932 463.03496,144.44665 580.87943,166.01464"
   id="path4171"
   inkscape:connector-curvature="0"
   style="fill:none;stroke:#828282;stroke-width:1.27283573" />
<path
   d="M 236.67668,432.43712 C 221.18185,306.99765 370.98514,93.566093 486.34801,76.719166"
   id="path4173"
   inkscape:connector-curvature="0"
   style="fill:none;stroke:#828282;stroke-width:1.27283573" />
<path
   d="M 236.67668,432.43712 C 294.83172,289.48976 579.26085,169.9221 710.72399,233.15681"
   id="path4175"
   inkscape:connector-curvature="0"
   style="fill:none;stroke:#828282;stroke-width:1.27283573" />
<path
   d="M 236.67668,432.43712 C 236.66988,339.43194 364.96004,199.9129 450.4941,199.90626"
   id="path4177"
   inkscape:connector-curvature="0"
   style="fill:none;stroke:#828282;stroke-width:1.27283573" />
<path
   d="m 236.67668,432.43712 c 47.3719,-75.75078 222.92829,-112.1111 292.59277,-60.60142"
   id="path4179"
   inkscape:connector-curvature="0"
   style="fill:none;stroke:#828282;stroke-width:1.27283573" />
<path
   d="m 236.67668,432.43712 c 27.63044,27.09603 31.69763,112.80526 6.77822,142.84913"
   id="path4181"
   inkscape:connector-curvature="0"
   style="fill:none;stroke:#828282;stroke-width:1.27283573" />
<path
   d="M 243.45613,575.28625 C 313.19383,391.28937 671.62561,229.03832 840.842,304.86741"
   id="path4183"
   inkscape:connector-curvature="0"
   style="fill:none;stroke:#828282;stroke-width:1.27283573" />
<path
   d="M 243.45613,575.28625 C 273.98072,405.2442 554.34144,199.96732 710.72522,233.15814"
   id="path4185"
   inkscape:connector-curvature="0"
   style="fill:none;stroke:#828282;stroke-width:1.27283573" />
<path
   d="M 243.45613,575.28625 C 215.81834,455.18505 340.04186,229.95678 450.49532,199.90626"
   id="path4187"
   inkscape:connector-curvature="0"
   style="fill:none;stroke:#828282;stroke-width:1.27283573" />
<path
   d="M 243.45613,575.28625 C 215.82566,548.19023 211.75849,462.48101 236.6779,432.43712"
   id="path4189"
   inkscape:connector-curvature="0"
   style="fill:none;stroke:#828282;stroke-width:1.27283573" />
<path
   d="m 335.04577,105.25263 c 8.10751,58.66892 -60.66469,159.89781 -114.62073,168.71347"
   id="path4191"
   inkscape:connector-curvature="0"
   style="fill:none;stroke:#828282;stroke-width:1.27283573" />
<path
   d="m 335.04577,105.25263 c 40.50701,86.82942 -18.51469,283.13933 -98.36909,327.18449"
   id="path4193"
   inkscape:connector-curvature="0"
   style="fill:none;stroke:#828282;stroke-width:1.27283573" />
<path
   d="m 335.04577,105.25263 c 101.33404,42.81744 194.26641,272.32082 154.88849,382.50473"
   id="path4195"
   inkscape:connector-curvature="0"
   style="fill:none;stroke:#828282;stroke-width:1.27283573" />
<path
   d="M 489.93548,487.75736 C 526.47663,374.86717 737.02151,265.13318 840.842,304.86607"
   id="path4197"
   inkscape:connector-curvature="0"
   style="fill:none;stroke:#828282;stroke-width:1.27283573" />
<path
   d="m 489.93548,487.75736 c 86.50691,-34.35616 263.66357,55.20345 295.25989,149.26779"
   id="path4199"
   inkscape:connector-curvature="0"
   style="fill:none;stroke:#828282;stroke-width:1.27283573" />
<path
   d="M 489.93548,487.75736 C 574.91658,378.79187 852.70787,353.94952 952.92013,446.35345"
   id="path4201"
   inkscape:connector-curvature="0"
   style="fill:none;stroke:#828282;stroke-width:1.27283573" />
<path
   d="M 489.93548,487.75736 C 448.9451,403.63156 503.51269,210.5854 580.88064,166.01464"
   id="path4203"
   inkscape:connector-curvature="0"
   style="fill:none;stroke:#828282;stroke-width:1.27283573" />
<path
   d="M 489.93548,487.75736 C 413.61363,406.32989 411.46162,159.70617 486.34924,76.717839"
   id="path4205"
   inkscape:connector-curvature="0"
   style="fill:none;stroke:#828282;stroke-width:1.27283573" />
<path
   d="M 489.93548,487.75736 C 487.26349,388.82199 619.73734,236.06219 710.72522,233.15681"
   id="path4207"
   inkscape:connector-curvature="0"
   style="fill:none;stroke:#828282;stroke-width:1.27283573" />
<path
   d="M 489.93548,487.75736 C 429.10112,438.76417 405.43776,266.05298 450.49532,199.90493"
   id="path4209"
   inkscape:connector-curvature="0"
   style="fill:none;stroke:#828282;stroke-width:1.27283573" />
<path
   d="m 489.93548,487.75736 c 5.13401,44.99946 -49.24192,120.87102 -90.62656,126.4535"
   id="path4211"
   inkscape:connector-curvature="0"
   style="fill:none;stroke:#828282;stroke-width:1.27283573" />
<path
   d="M 489.93548,487.75736 C 496.95173,330.04157 725.04579,104.91152 870.09224,112.54062"
   id="path4213"
   inkscape:connector-curvature="0"
   style="fill:none;stroke:#828282;stroke-width:1.27283573" />
<path
   d="m 489.93548,487.75736 c 82.57888,-4.18751 212.2245,124.21705 216.07562,214.00893"
   id="path4215"
   inkscape:connector-curvature="0"
   style="fill:none;stroke:#828282;stroke-width:1.27283573" />
<path
   d="m 489.93548,487.75736 c 42.32089,16.36513 83.22826,109.9397 68.17775,155.9585"
   id="path4217"
   inkscape:connector-curvature="0"
   style="fill:none;stroke:#828282;stroke-width:1.27283573" />
<path
   d="M 489.93548,487.75736 C 476.48035,456.01858 500.08146,386.4661 529.27067,371.8357"
   id="path4219"
   inkscape:connector-curvature="0"
   style="fill:none;stroke:#828282;stroke-width:1.27283573" />
<ellipse
   cx="840.84198"
   cy="304.86743"
   id="circle4221"
   rx="42.29525"
   ry="45.989601"
   style="fill:#8c96c6;stroke:#000000;stroke-width:1.27283573" />
<ellipse
   cx="236.67667"
   cy="432.4371"
   id="circle4223"
   rx="21.645645"
   ry="23.536324"
   style="fill:#bfcae2;stroke:#000000;stroke-width:1.27283573" />
<ellipse
   cx="220.42505"
   cy="273.96613"
   id="circle4225"
   rx="27.840403"
   ry="30.272177"
   style="fill:#b7c2dd;stroke:#000000;stroke-width:1.27283573" />
<ellipse
   cx="163.35515"
   cy="125.61149"
   id="circle4227"
   rx="5.1266966"
   ry="5.5744972"
   style="fill:#edf8fb;stroke:#000000;stroke-width:1.27283573" />
<ellipse
   cx="232.77551"
   cy="170.3999"
   id="circle4229"
   rx="5.1266966"
   ry="5.5744972"
   style="fill:#edf8fb;stroke:#000000;stroke-width:1.27283573" />
<ellipse
   cx="73.684334"
   cy="246.70815"
   id="circle4231"
   rx="5.1266966"
   ry="5.5744972"
   style="fill:#edf8fb;stroke:#000000;stroke-width:1.27283573" />
<ellipse
   cx="63.806904"
   cy="312.63589"
   id="circle4233"
   rx="5.1266966"
   ry="5.5744972"
   style="fill:#edf8fb;stroke:#000000;stroke-width:1.27283573" />
<ellipse
   cx="71.644653"
   cy="178.70061"
   id="circle4235"
   rx="5.1266966"
   ry="5.5744972"
   style="fill:#edf8fb;stroke:#000000;stroke-width:1.27283573" />
<ellipse
   cx="71.943703"
   cy="380.64606"
   id="circle4237"
   rx="5.1266966"
   ry="5.5744972"
   style="fill:#edf8fb;stroke:#000000;stroke-width:1.27283573" />
<ellipse
   cx="785.19531"
   cy="637.02515"
   id="circle4239"
   rx="19.581539"
   ry="21.291922"
   style="fill:#b7c2dd;stroke:#000000;stroke-width:1.27283573" />
<ellipse
   cx="952.91888"
   cy="446.35342"
   id="circle4241"
   rx="15.450887"
   ry="16.800472"
   style="fill:#bfcae2;stroke:#000000;stroke-width:1.27283573" />
<ellipse
   cx="580.88062"
   cy="166.01463"
   id="circle4243"
   rx="9.2561283"
   ry="10.064622"
   style="fill:#ccd6e9;stroke:#000000;stroke-width:1.27283573" />
<ellipse
   cx="486.34799"
   cy="76.719162"
   id="circle4245"
   rx="5.1266966"
   ry="5.5744972"
   style="fill:#d4dfed;stroke:#000000;stroke-width:1.27283573" />
<ellipse
   cx="710.724"
   cy="233.15681"
   id="circle4247"
   rx="21.645645"
   ry="23.536324"
   style="fill:#a7b1d4;stroke:#000000;stroke-width:1.27283573" />
<ellipse
   cx="450.49411"
   cy="199.90492"
   id="circle4249"
   rx="7.1920233"
   ry="7.8202224"
   style="fill:#d0dbeb;stroke:#000000;stroke-width:1.27283573" />
<ellipse
   cx="399.30896"
   cy="614.21088"
   id="circle4251"
   rx="5.1266966"
   ry="5.5744972"
   style="fill:#e4eff6;stroke:#000000;stroke-width:1.27283573" />
<ellipse
   cx="870.091"
   cy="112.54062"
   id="circle4253"
   rx="7.1920233"
   ry="7.8202224"
   style="fill:#e4eff6;stroke:#000000;stroke-width:1.27283573" />
<ellipse
   cx="694.6015"
   cy="701.62701"
   id="circle4255"
   rx="9.5389109"
   ry="10.388803"
   style="fill:#e0ebf4;stroke:#000000;stroke-width:1.3127774" />
<ellipse
   cx="960.92877"
   cy="347.76047"
   id="circle4257"
   rx="5.1266966"
   ry="5.5744972"
   style="fill:#edf8fb;stroke:#000000;stroke-width:1.27283573" />
<ellipse
   cx="976.39429"
   cy="144.55417"
   id="circle4259"
   rx="7.1920233"
   ry="7.8202224"
   style="fill:#e8f3f8;stroke:#000000;stroke-width:1.27283573" />
<ellipse
   cx="558.11194"
   cy="643.71576"
   id="circle4261"
   rx="5.1266966"
   ry="5.5744972"
   style="fill:#e8f3f8;stroke:#000000;stroke-width:1.27283573" />
<ellipse
   cx="967.93402"
   cy="225.48923"
   id="circle4263"
   rx="5.1266966"
   ry="5.5744972"
   style="fill:#edf8fb;stroke:#000000;stroke-width:1.27283573" />
<ellipse
   cx="529.27063"
   cy="371.83572"
   id="circle4265"
   rx="21.645645"
   ry="23.536324"
   style="fill:#bbc6e0;stroke:#000000;stroke-width:1.27283573" />
<ellipse
   cx="972.50409"
   cy="280.76038"
   id="circle4267"
   rx="5.1266966"
   ry="5.5744972"
   style="fill:#edf8fb;stroke:#000000;stroke-width:1.27283573" />
<path
   d="m 832.46474,54.778212 c 0,3.079246 -2.29482,5.574497 -5.1267,5.574497 -2.83189,0 -5.1267,-2.495251 -5.1267,-5.574497"
   id="path4269"
   inkscape:connector-curvature="0"
   style="fill:#edf8fb;stroke:#000000;stroke-width:1.27283573" />
<ellipse
   cx="931.34045"
   cy="583.24719"
   id="circle4271"
   rx="5.1266966"
   ry="5.5744972"
   style="fill:#edf8fb;stroke:#000000;stroke-width:1.27283573" />
<ellipse
   cx="717.89648"
   cy="74.89418"
   id="circle4273"
   rx="5.1266966"
   ry="5.5744972"
   style="fill:#edf8fb;stroke:#000000;stroke-width:1.27283573" />
<ellipse
   cx="960.51007"
   cy="72.371063"
   id="circle4275"
   rx="5.1266966"
   ry="5.5744972"
   style="fill:#edf8fb;stroke:#000000;stroke-width:1.27283573" />
<ellipse
   cx="335.04578"
   cy="105.25263"
   id="circle4277"
   rx="11.321455"
   ry="12.310348"
   style="fill:#e0ebf4;stroke:#000000;stroke-width:1.27283573" />
<ellipse
   cx="489.93555"
   cy="487.75739"
   id="circle4279"
   rx="29.905729"
   ry="32.517902"
   style="fill:#b7c2dd;stroke:#000000;stroke-width:1.27283573" />
<ellipse
   cx="243.45615"
   cy="575.28625"
   id="circle4281"
   rx="13.386782"
   ry="14.556073"
   style="fill:#dce7f2;stroke:#000000;stroke-width:1.27283573" />
<g
   id="node-labels"
   transform="matrix(1.2206421,0,0,1.3272612,-145.41481,-48.437581)">
	<text
   transform="translate(648.2753,281.3418)"
   font-size="83.3"
   id="text4283"
   style="font-size:83.30000305px;font-family:ArialMT">Wikidata</text>


	<text
   transform="translate(176.5957,372.3281)"
   font-size="42.7"
   id="text4285"
   style="font-size:42.70000076px;font-family:ArialMT">Wikipedia(EN)</text>


	<text
   transform="translate(194.9898,255.3949)"
   font-size="54.6"
   id="text4287"
   style="font-size:54.59999847px;font-family:ArialMT">DBpedia</text>


	<text
   transform="translate(229.7993,133.3751)"
   font-size="9.8"
   id="text4289"
   style="font-size:9.80000019px;font-family:ArialMT">dbpedia-pt</text>


	<text
   transform="translate(286.9434,167.1201)"
   font-size="9.8"
   id="text4291"
   style="font-size:9.80000019px;font-family:ArialMT">dbpedia-nl</text>


	<text
   transform="translate(156.6094,224.6425)"
   font-size="9.8"
   id="text4293"
   style="font-size:9.80000019px;font-family:ArialMT">dbpedia-ja</text>


	<text
   transform="translate(149.8819,274.2852)"
   font-size="9.8"
   id="text4295"
   style="font-size:9.80000019px;font-family:ArialMT">dbpedia-it</text>


	<text
   transform="translate(153.3028,173.374)"
   font-size="9.8"
   id="text4297"
   style="font-size:9.80000019px;font-family:ArialMT">dbpedia-de</text>


	<text
   transform="translate(156.0045,325.5566)"
   font-size="9.8"
   id="text4299"
   style="font-size:9.80000019px;font-family:ArialMT">dbpedia-fr</text>


	<text
   transform="translate(724.9561,523.5771)"
   font-size="38.5"
   id="text4301"
   style="font-size:38.5px;font-family:ArialMT">ISNI</text>


	<text
   transform="translate(813.6523,378.3642)"
   font-size="30.1"
   id="text4303"
   style="font-size:30.10000038px;font-family:ArialMT">Ark/dataBNF</text>


	<text
   transform="translate(550.497,164.9453)"
   font-size="18.2"
   id="text4305"
   style="font-size:18.20000076px;font-family:ArialMT">idref/sudoc</text>


	<text
   transform="translate(497.1406,96.1113)"
   font-size="9.8"
   id="text4307"
   style="font-size:9.80000019px;font-family:ArialMT">GND/dnb</text>


	<text
   transform="translate(664.9805,220.0611)"
   font-size="42.7"
   id="text4309"
   style="font-size:42.70000076px;font-family:ArialMT">Viaf</text>


	<text
   transform="translate(452.7969,189.7026)"
   font-size="14"
   id="text4311"
   style="font-size:14px;font-family:ArialMT">LOC/LCCN</text>


	<text
   transform="translate(425.5586,501.0429)"
   font-size="9.8"
   id="text4313"
   style="font-size:9.80000019px;font-family:ArialMT">Freebase</text>


	<text
   transform="translate(797.3234,123.8779)"
   font-size="14"
   id="text4315"
   style="font-size:14px;font-family:ArialMT">BNCCantic</text>


	<text
   transform="translate(673.7499,568.4843)"
   font-size="18.2"
   id="text4317"
   style="font-size:18.20000076px;font-family:ArialMT">KBNL</text>


	<text
   transform="translate(890.5615,300.7784)"
   font-size="9.8"
   id="text4319"
   style="font-size:9.80000019px;font-family:ArialMT">Agorha</text>


	<text
   transform="translate(904.6387,147.9996)"
   font-size="14"
   id="text4321"
   style="font-size:14px;font-family:ArialMT">Odis</text>


	<text
   transform="translate(542.0361,523.7305)"
   font-size="9.8"
   id="text4323"
   style="font-size:9.80000019px;font-family:ArialMT">PeopleAustralia</text>


	<text
   transform="translate(902.5702,208.1679)"
   font-size="9.8"
   id="text4325"
   style="font-size:9.80000019px;font-family:ArialMT">Fast</text>


	<text
   transform="translate(508.8305,324.2881)"
   font-size="42.7"
   id="text4327"
   style="font-size:42.70000076px;font-family:ArialMT">BNE</text>


	<text
   transform="translate(899.4979,249.8105)"
   font-size="9.8"
   id="text4329"
   style="font-size:9.80000019px;font-family:ArialMT">Babelio</text>


	<text
   transform="translate(783.5762,79.5482)"
   font-size="9.8"
   id="text4331"
   style="font-size:9.80000019px;font-family:ArialMT">NE.se</text>


	<text
   transform="translate(846.1661,477.7441)"
   font-size="9.8"
   id="text4333"
   style="font-size:9.80000019px;font-family:ArialMT">Nat.Lib.ofIreland</text>


	<text
   transform="translate(683.8438,95.2226)"
   font-size="9.8"
   id="text4335"
   style="font-size:9.80000019px;font-family:ArialMT">SBN(italie)</text>


	<text
   transform="translate(892.4054,92.8349)"
   font-size="9.8"
   id="text4337"
   style="font-size:9.80000019px;font-family:ArialMT">CPCP</text>


	<text
   transform="translate(368.287,120.9834)"
   font-size="22.4"
   id="text4339"
   style="font-size:22.39999962px;font-family:ArialMT">Yago</text>


	<text
   transform="translate(285.2041,417.4326)"
   font-size="58.8"
   id="text4341"
   style="font-size:58.79999924px;font-family:ArialMT">Wikidata-DBpedia</text>


	<text
   transform="translate(210.1591,474.8573)"
   font-size="26.6"
   id="text4343"
   style="font-size:26.60000038px;font-family:ArialMT">WorldCatIdentities</text>


</g>
</svg>