<?xml version="1.0" encoding="utf-8"?>
<!-- Generator: Adobe Illustrator 17.0.0, SVG Export Plug-In . SVG Version: 6.00 Build 0)  -->
<!DOCTYPE svg PUBLIC "-//W3C//DTD SVG 1.1//EN" "http://www.w3.org/Graphics/SVG/1.1/DTD/svg11.dtd">
<svg version="1.1" id="Calque_1" xmlns="http://www.w3.org/2000/svg" xmlns:xlink="http://www.w3.org/1999/xlink" x="0px" y="0px"
	 width="1084px" height="714px" viewBox="0 0 1084 714" enable-background="new 0 0 1084 714" xml:space="preserve">
<g id="edges">
	<path fill="none" stroke="#828282" d="M440.666-260.007"/>
</g>
<g id="nodes">
	<path fill="#EDF8FB" stroke="#000000" d="M436.466-260.007c0-2.32,1.88-4.2,4.2-4.2s4.2,1.88,4.2,4.2"/>
</g>
<path fill="none" stroke="#828282" d="M807.982,266.191c-79.768,118.214-376.742,175.884-494.956,96.115"/>
<path fill="none" stroke="#828282" d="M299.711,242.909c-31.706-13.004-59.758-80.069-46.754-111.775"/>
<path fill="none" stroke="#828282" d="M299.711,242.909c-13.583-17.63-7.512-64.448,10.117-78.03"/>
<path fill="none" stroke="#828282" d="M299.711,242.909c-28.151,19.936-100.281,7.614-120.216-20.537"/>
<path fill="none" stroke="#828282" d="M299.711,242.909c-19.835,31.489-96.82,48.969-128.308,29.135"/>
<path fill="none" stroke="#828282" d="M299.711,242.909c-38.733,10.022-111.865-33.043-121.887-71.776"/>
<path fill="none" stroke="#828282" d="M299.711,242.909c-8.253,40.404-81.238,88.629-121.642,80.376"/>
<path fill="none" stroke="#828282" d="M807.982,266.191c40.934,59.169,13.582,209.324-45.588,250.259"/>
<path fill="none" stroke="#828282" d="M807.982,266.191c39.684,2.956,94.775,66.917,91.819,106.6"/>
<path fill="none" stroke="#828282" d="M807.982,266.191c-63.517,21.671-191.3-41.098-212.971-104.615"/>
<path fill="none" stroke="#828282" d="M807.982,266.191c-92.462,23.704-266.711-79.432-290.415-171.894"/>
<path fill="none" stroke="#828282" d="M807.982,266.191c-32.125,10.514-96.083-21.903-106.597-54.028"/>
<path fill="none" stroke="#828282" d="M807.982,266.191c-79.774,48.141-271.647,0.693-319.788-79.081"/>
<path fill="none" stroke="#828282" d="M807.982,266.191c-25.73,118.958-242.764,258.8-361.722,233.07"/>
<path fill="none" stroke="#828282" d="M807.982,266.191c-24.188-33.773-9.811-120.716,23.963-144.905"/>
<path fill="none" stroke="#828282" d="M807.982,266.191c37.715,81.899-28.56,261.321-110.459,299.036"/>
<path fill="none" stroke="#828282" d="M807.982,266.191c26.14-13.213,85.168,6.178,98.381,32.318"/>
<path fill="none" stroke="#828282" d="M807.982,266.191c-1.947-46.367,64.684-118.838,111.051-120.784"/>
<path fill="none" stroke="#828282" d="M807.982,266.191c4.735,97.385-134.239,250.564-231.623,255.299"/>
<path fill="none" stroke="#828282" d="M807.982,266.191c8.863-32.785,71.334-68.668,104.119-59.806"/>
<path fill="none" stroke="#828282" d="M807.982,266.191c-40.959,61.142-194.11,91.415-255.252,50.456"/>
<path fill="none" stroke="#828282" d="M807.982,266.191c17.94-25.205,82.658-36.102,107.863-18.162"/>
<path fill="none" stroke="#828282" d="M807.982,266.191c-39.897-35.473-46.535-148.527-11.062-188.425"/>
<path fill="none" stroke="#828282" d="M807.982,266.191c56.776,27.12,101.26,152.964,74.14,209.74"/>
<path fill="none" stroke="#828282" d="M762.394,516.449c-40.934-59.169-13.582-209.324,45.588-250.259"/>
<path fill="none" stroke="#828282" d="M762.394,516.449c-1.25-56.213,81.194-142.408,137.406-143.658"/>
<path fill="none" stroke="#828282" d="M762.394,516.449c-104.451-37.498-204.881-250.422-167.383-354.874"/>
<path fill="none" stroke="#828282" d="M762.394,516.449C628.998,480.984,482.101,227.693,517.566,94.297"/>
<path fill="none" stroke="#828282" d="M762.394,516.449c-73.059-48.655-109.665-231.227-61.01-304.287"/>
<path fill="none" stroke="#828282" d="M762.394,516.449c-120.708-11.028-285.229-208.632-274.201-329.34"/>
<path fill="none" stroke="#828282" d="M762.394,516.449c-81.893,1.972-207.692-117.909-209.664-199.802"/>
<path fill="none" stroke="#828282" d="M899.8,372.791c-39.684-2.956-94.775-66.917-91.819-106.6"/>
<path fill="none" stroke="#828282" d="M899.8,372.791c1.25,56.213-81.194,142.408-137.406,143.658"/>
<path fill="none" stroke="#828282" d="M899.8,372.791c-103.201,18.715-286.075-108.015-304.79-211.216"/>
<path fill="none" stroke="#828282" d="M899.8,372.791c-71.809,7.557-190.859-88.82-198.416-160.629"/>
<path fill="none" stroke="#828282" d="M899.8,372.791c-145.994,94.041-506.048,16.112-600.089-129.882"/>
<path fill="none" stroke="#828282" d="M595.011,161.575c104.451,37.498,204.881,250.422,167.383,354.874"/>
<path fill="none" stroke="#828282" d="M595.011,161.575C698.212,142.861,881.086,269.59,899.8,372.791"/>
<path fill="none" stroke="#828282" d="M701.384,212.162c32.125-10.514,96.083,21.903,106.597,54.028"/>
<path fill="none" stroke="#828282" d="M701.384,212.162c73.059,48.655,109.665,231.228,61.01,304.287"/>
<path fill="none" stroke="#828282" d="M701.384,212.162c71.809-7.557,190.859,88.82,198.416,160.629"/>
<path fill="none" stroke="#828282" d="M701.384,212.162c-31.392,11.157-95.216-19.195-106.374-50.587"/>
<path fill="none" stroke="#828282" d="M701.384,212.162c-60.337,13.191-170.628-57.529-183.818-117.866"/>
<path fill="none" stroke="#828282" d="M701.384,212.162c-47.649,37.628-175.563,22.596-213.191-25.053"/>
<path fill="none" stroke="#828282" d="M701.384,212.162c-8.834,50.628-98.027,113.319-148.655,104.484"/>
<path fill="none" stroke="#828282" d="M701.384,212.162c-22.673-25.023-19.148-96.567,5.875-119.24"/>
<path fill="none" stroke="#828282" d="M488.193,187.109c47.649-37.628,175.563-22.596,213.191,25.053"/>
<path fill="none" stroke="#828282" d="M831.944,121.286c-7.937,44.287-86.272,98.813-130.56,90.877"/>
<path fill="none" stroke="#828282" d="M697.523,565.227c-37.715-81.899,28.56-261.321,110.459-299.036"/>
<path fill="none" stroke="#828282" d="M697.523,565.227c-69.841-71.385-67.523-283.224,3.862-353.064"/>
<path fill="none" stroke="#828282" d="M919.032,145.406c-13.48-8.275-21.288-40.906-13.013-54.386"/>
<path fill="none" stroke="#828282" d="M552.73,316.647c81.893-1.972,207.692,117.909,209.664,199.802"/>
<path fill="none" stroke="#828282" d="M552.73,316.647c80.643-58.185,288.885-24.499,347.071,56.144"/>
<path fill="none" stroke="#828282" d="M552.73,316.647c-22.558-39.47,2.81-132.513,42.281-155.072"/>
<path fill="none" stroke="#828282" d="M552.73,316.647c-51.503-37.437-72.601-170.847-35.163-222.35"/>
<path fill="none" stroke="#828282" d="M552.73,316.647c8.834-50.628,98.027-113.319,148.655-104.484"/>
<path fill="none" stroke="#828282" d="M552.73,316.647c-38.815-13-77.537-90.723-64.536-129.537"/>
<path fill="none" stroke="#828282" d="M552.73,316.647c-65.351,35.856-217.162-8.387-253.018-73.738"/>
<path fill="none" stroke="#828282" d="M552.73,316.647c-38.809,57.073-182.632,84.468-239.704,45.659"/>
<path fill="none" stroke="#828282" d="M299.711,242.909c106.31-96.998,411.273-83.029,508.27,23.282"/>
<path fill="none" stroke="#828282" d="M299.711,242.909C313.56,169.616,444.273,80.448,517.566,94.297"/>
<path fill="none" stroke="#828282" d="M299.711,242.909C380.291,264.87,468.22,418.68,446.26,499.26"/>
<path fill="none" stroke="#828282" d="M299.711,242.909c-6.642-44.203,49.699-120.472,93.902-127.114"/>
<path fill="none" stroke="#828282" d="M299.711,242.909c76.374-11.943,208.85,84.703,220.793,161.077"/>
<path fill="none" stroke="#828282" d="M313.025,362.306c120.702-59.045,390.324,33.441,449.369,154.143"/>
<path fill="none" stroke="#828282" d="M313.025,362.306C432.477,247.048,784.542,253.339,899.8,372.791"/>
<path fill="none" stroke="#828282" d="M313.025,362.306c16.251-96.543,185.442-216.981,281.985-200.731"/>
<path fill="none" stroke="#828282" d="M313.025,362.306c-12.694-94.51,110.031-255.316,204.541-268.009"/>
<path fill="none" stroke="#828282" d="M313.025,362.306c47.643-107.701,280.659-197.787,388.359-150.144"/>
<path fill="none" stroke="#828282" d="M313.025,362.306c-0.006-70.073,105.095-175.191,175.168-175.196"/>
<path fill="none" stroke="#828282" d="M313.025,362.306c38.809-57.073,182.632-84.468,239.704-45.659"/>
<path fill="none" stroke="#828282" d="M313.025,362.306c22.636,20.415,25.968,84.991,5.553,107.627"/>
<path fill="none" stroke="#828282" d="M318.579,469.933c57.132-138.629,350.774-260.874,489.403-203.742"/>
<path fill="none" stroke="#828282" d="M318.579,469.933c25.007-128.115,254.69-282.777,382.806-257.77"/>
<path fill="none" stroke="#828282" d="M318.579,469.933c-22.642-90.488,79.127-260.182,169.615-282.823"/>
<path fill="none" stroke="#828282" d="M318.579,469.933c-22.636-20.415-25.968-84.991-5.553-107.627"/>
<path fill="none" stroke="#828282" d="M393.613,115.795c6.642,44.203-49.699,120.472-93.902,127.114"/>
<path fill="none" stroke="#828282" d="M393.613,115.795c33.185,65.42-15.168,213.326-80.588,246.511"/>
<path fill="none" stroke="#828282" d="M393.613,115.795c83.017,32.26,159.151,205.175,126.891,288.191"/>
<path fill="none" stroke="#828282" d="M520.505,403.986c29.936-85.055,202.423-167.732,287.477-137.796"/>
<path fill="none" stroke="#828282" d="M520.505,403.986c70.87-25.885,216.004,41.592,241.889,112.463"/>
<path fill="none" stroke="#828282" d="M520.505,403.986c69.62-82.098,297.198-100.815,379.296-31.195"/>
<path fill="none" stroke="#828282" d="M520.505,403.986c-33.581-63.383,11.123-208.83,74.506-242.411"/>
<path fill="none" stroke="#828282" d="M520.505,403.986c-62.526-61.35-64.289-247.164-2.938-309.69"/>
<path fill="none" stroke="#828282" d="M520.505,403.986c-2.189-74.541,106.339-189.635,180.88-191.824"/>
<path fill="none" stroke="#828282" d="M520.505,403.986c-49.838-36.913-69.224-167.039-32.311-216.877"/>
<path fill="none" stroke="#828282" d="M520.505,403.986c4.206,33.904-40.341,91.068-74.245,95.274"/>
<path fill="none" stroke="#828282" d="M520.505,403.986c5.748-118.828,192.612-288.448,311.44-282.7"/>
<path fill="none" stroke="#828282" d="M520.505,403.986c67.652-3.155,173.863,93.589,177.018,161.241"/>
<path fill="none" stroke="#828282" d="M520.505,403.986c34.671,12.33,68.184,82.832,55.854,117.504"/>
<path fill="none" stroke="#828282" d="M520.505,403.986c-11.023-23.913,8.312-76.316,32.225-87.339"/>
<circle fill="#8C96C6" stroke="#000000" cx="807.982" cy="266.191" r="34.65"/>
<circle fill="#BFCAE2" stroke="#000000" cx="313.025" cy="362.306" r="17.733"/>
<circle fill="#B7C2DD" stroke="#000000" cx="299.711" cy="242.909" r="22.808"/>
<circle fill="#EDF8FB" stroke="#000000" cx="252.957" cy="131.134" r="4.2"/>
<circle fill="#EDF8FB" stroke="#000000" cx="309.829" cy="164.879" r="4.2"/>
<circle fill="#EDF8FB" stroke="#000000" cx="179.495" cy="222.372" r="4.2"/>
<circle fill="#EDF8FB" stroke="#000000" cx="171.403" cy="272.044" r="4.2"/>
<circle fill="#EDF8FB" stroke="#000000" cx="177.824" cy="171.133" r="4.2"/>
<circle fill="#EDF8FB" stroke="#000000" cx="178.069" cy="323.285" r="4.2"/>
<circle fill="#B7C2DD" stroke="#000000" cx="762.394" cy="516.449" r="16.042"/>
<circle fill="#BFCAE2" stroke="#000000" cx="899.8" cy="372.791" r="12.658"/>
<circle fill="#CCD6E9" stroke="#000000" cx="595.011" cy="161.575" r="7.583"/>
<circle fill="#D4DFED" stroke="#000000" cx="517.566" cy="94.297" r="4.2"/>
<circle fill="#A7B1D4" stroke="#000000" cx="701.384" cy="212.162" r="17.733"/>
<circle fill="#D0DBEB" stroke="#000000" cx="488.193" cy="187.109" r="5.892"/>
<circle fill="#E4EFF6" stroke="#000000" cx="446.26" cy="499.26" r="4.2"/>
<circle fill="#E4EFF6" stroke="#000000" cx="831.944" cy="121.286" r="5.892"/>
<circle fill="#E0EBF4" stroke="#000000" cx="697.523" cy="565.227" r="7.583"/>
<circle fill="#EDF8FB" stroke="#000000" cx="906.362" cy="298.508" r="4.2"/>
<circle fill="#E8F3F8" stroke="#000000" cx="919.032" cy="145.406" r="5.892"/>
<circle fill="#E8F3F8" stroke="#000000" cx="576.358" cy="521.49" r="4.2"/>
<circle fill="#EDF8FB" stroke="#000000" cx="912.101" cy="206.385" r="4.2"/>
<circle fill="#BBC6E0" stroke="#000000" cx="552.73" cy="316.647" r="17.733"/>
<circle fill="#EDF8FB" stroke="#000000" cx="915.845" cy="248.028" r="4.2"/>
<path fill="#EDF8FB" stroke="#000000" d="M801.119,77.766c0,2.32-1.88,4.2-4.2,4.2c-2.32,0-4.2-1.88-4.2-4.2"/>
<circle fill="#EDF8FB" stroke="#000000" cx="882.122" cy="475.931" r="4.2"/>
<circle fill="#EDF8FB" stroke="#000000" cx="707.26" cy="92.922" r="4.2"/>
<circle fill="#EDF8FB" stroke="#000000" cx="906.019" cy="91.021" r="4.2"/>
<circle fill="#E0EBF4" stroke="#000000" cx="393.613" cy="115.795" r="9.275"/>
<circle fill="#B7C2DD" stroke="#000000" cx="520.505" cy="403.986" r="24.5"/>
<circle fill="#DCE7F2" stroke="#000000" cx="318.579" cy="469.933" r="10.967"/>
<g id="node-labels">
	<text transform="matrix(1 0 0 1 648.2753 281.3418)" font-family="'ArialMT'" font-size="83.3">Wikidata</text>
	<text transform="matrix(1 0 0 1 176.5957 372.3281)" font-family="'ArialMT'" font-size="42.7">Wikipedia(EN)</text>
	<text transform="matrix(1 0 0 1 194.9898 255.3949)" font-family="'ArialMT'" font-size="54.6">DBpedia</text>
	<text transform="matrix(1 0 0 1 229.7993 133.3751)" font-family="'ArialMT'" font-size="9.8">dbpedia-pt</text>
	<text transform="matrix(1 0 0 1 286.9434 167.1201)" font-family="'ArialMT'" font-size="9.8">dbpedia-nl</text>
	<text transform="matrix(1 0 0 1 156.6094 224.6425)" font-family="'ArialMT'" font-size="9.8">dbpedia-ja</text>
	<text transform="matrix(1 0 0 1 149.8819 274.2852)" font-family="'ArialMT'" font-size="9.8">dbpedia-it</text>
	<text transform="matrix(1 0 0 1 153.3028 173.374)" font-family="'ArialMT'" font-size="9.8">dbpedia-de</text>
	<text transform="matrix(1 0 0 1 156.0045 325.5566)" font-family="'ArialMT'" font-size="9.8">dbpedia-fr</text>
	<text transform="matrix(1 0 0 1 724.9561 523.5771)" font-family="'ArialMT'" font-size="38.5">ISNI</text>
	<text transform="matrix(1 0 0 1 813.6523 378.3642)" font-family="'ArialMT'" font-size="30.1">Ark/dataBNF</text>
	<text transform="matrix(1 0 0 1 550.497 164.9453)" font-family="'ArialMT'" font-size="18.2">idref/sudoc</text>
	<text transform="matrix(1 0 0 1 497.1406 96.1113)" font-family="'ArialMT'" font-size="9.8">GND/dnb</text>
	<text transform="matrix(1 0 0 1 664.9805 220.0611)" font-family="'ArialMT'" font-size="42.7">Viaf</text>
	<text transform="matrix(1 0 0 1 452.7969 189.7026)" font-family="'ArialMT'" font-size="14">LOC/LCCN</text>
	<text transform="matrix(1 0 0 1 425.5586 501.0429)" font-family="'ArialMT'" font-size="9.8">Freebase</text>
	<text transform="matrix(1 0 0 1 797.3234 123.8779)" font-family="'ArialMT'" font-size="14">BNCCantic</text>
	<text transform="matrix(1 0 0 1 673.7499 568.4843)" font-family="'ArialMT'" font-size="18.2">KBNL</text>
	<text transform="matrix(1 0 0 1 890.5615 300.7784)" font-family="'ArialMT'" font-size="9.8">Agorha</text>
	<text transform="matrix(1 0 0 1 904.6387 147.9996)" font-family="'ArialMT'" font-size="14">Odis</text>
	<text transform="matrix(1 0 0 1 542.0361 523.7305)" font-family="'ArialMT'" font-size="9.8">PeopleAustralia</text>
	<text transform="matrix(1 0 0 1 902.5702 208.1679)" font-family="'ArialMT'" font-size="9.8">Fast</text>
	<text transform="matrix(1 0 0 1 508.8305 324.2881)" font-family="'ArialMT'" font-size="42.7">BNE</text>
	<text transform="matrix(1 0 0 1 899.4979 249.8105)" font-family="'ArialMT'" font-size="9.8">Babelio</text>
	<text transform="matrix(1 0 0 1 783.5762 79.5482)" font-family="'ArialMT'" font-size="9.8">NE.se</text>
	<text transform="matrix(1 0 0 1 846.1661 477.7441)" font-family="'ArialMT'" font-size="9.8">Nat.Lib.ofIreland</text>
	<text transform="matrix(1 0 0 1 683.8438 95.2226)" font-family="'ArialMT'" font-size="9.8">SBN(italie)</text>
	<text transform="matrix(1 0 0 1 892.4054 92.8349)" font-family="'ArialMT'" font-size="9.8">CPCP</text>
	<text transform="matrix(1 0 0 1 368.287 120.9834)" font-family="'ArialMT'" font-size="22.4">Yago</text>
	<text transform="matrix(1 0 0 1 285.2041 417.4326)" font-family="'ArialMT'" font-size="58.8">Wikidata-DBpedia</text>
	<text transform="matrix(1 0 0 1 210.1591 474.8573)" font-family="'ArialMT'" font-size="26.6">WorldCatIdentities</text>
</g>
</svg>
